<svg width="159" height="47" viewBox="0 0 159 47" fill="none" xmlns="http://www.w3.org/2000/svg">
<path d="M16.0625 30.5664C15.5156 31.1211 14.9648 31.1211 14.4102 30.5664C13.8555 30.0117 13.8555 29.4609 14.4102 28.9141L28.1562 15.1914C28.4453 14.832 28.8164 14.6328 29.2695 14.5938C30.0195 14.6016 30.3984 14.9805 30.4062 15.7305V15.9297V29.8281C30.4062 30.6094 30.0156 31 29.2344 31C28.4531 31 28.0625 30.6094 28.0625 29.8281V18.5898L16.0625 30.5664ZM33.9219 23.9688V29.8281C33.9219 30.6094 33.5312 31 32.75 31C31.9688 31 31.5781 30.6094 31.5781 29.8281V15.7656C31.5781 14.9844 31.9688 14.5938 32.75 14.5938H43.2969C46.4219 14.5938 47.9844 16.1562 47.9844 19.2812C47.9844 22.3984 46.4219 23.9609 43.2969 23.9688H33.9219ZM43.2969 21.625C44.8594 21.625 45.6406 20.8438 45.6406 19.2812C45.6406 17.7188 44.8594 16.9375 43.2969 16.9375H33.9219V21.625H43.2969ZM51.2188 30.5664C50.6719 31.1211 50.1211 31.1211 49.5664 30.5664C49.0117 30.0117 49.0117 29.4609 49.5664 28.9141L63.3125 15.1914C63.6016 14.832 63.9727 14.6328 64.4258 14.5938C65.1758 14.6016 65.5547 14.9805 65.5625 15.7305V15.9297V29.8281C65.5625 30.6094 65.1719 31 64.3906 31C63.6094 31 63.2188 30.6094 63.2188 29.8281V18.5898L51.2188 30.5664ZM74.4453 23.9688H69.0781V29.8281C69.0781 30.6094 68.6875 31 67.9062 31C67.125 31 66.7344 30.6094 66.7344 29.8281V15.7656C66.7344 14.9844 67.125 14.5938 67.9062 14.5938H78.4531C81.5781 14.5938 83.1406 16.1562 83.1406 19.2812C83.1406 22.3984 81.5781 23.9609 78.4531 23.9688H77.75L82.7305 28.9375C83.2852 29.4844 83.2852 30.0352 82.7305 30.5898C82.1758 31.1445 81.625 31.1445 81.0781 30.5898L74.4453 23.9688ZM78.4531 21.625C80.0156 21.625 80.7969 20.8438 80.7969 19.2812C80.7969 17.7188 80.0156 16.9375 78.4531 16.9375H69.0781V21.625H78.4531ZM84.3125 15.7656C84.3125 14.9844 84.7031 14.5938 85.4844 14.5938H99.5469C100.328 14.5938 100.719 14.9844 100.719 15.7656C100.719 16.5469 100.328 16.9375 99.5469 16.9375H85.4844C84.7031 16.9375 84.3125 16.5469 84.3125 15.7656ZM84.3125 29.8281C84.3125 29.0469 84.7031 28.6562 85.4844 28.6562H99.5469C100.328 28.6562 100.719 29.0469 100.719 29.8281C100.719 30.6094 100.328 31 99.5469 31H85.4844C84.7031 31 84.3125 30.6094 84.3125 29.8281ZM84.3125 22.7969C84.3125 22.0156 84.7031 21.625 85.4844 21.625H99.5469C100.328 21.625 100.719 22.0156 100.719 22.7969C100.719 23.5781 100.328 23.9688 99.5469 23.9688H85.4844C84.7031 23.9688 84.3125 23.5781 84.3125 22.7969ZM103.062 28.6562C102.281 28.6562 101.891 29.0469 101.891 29.8281C101.891 30.6094 102.281 31 103.062 31H113.609C116.734 31 118.297 29.4375 118.297 26.3125C118.297 23.1875 116.734 21.625 113.609 21.625H106.578C105.016 21.625 104.234 20.8438 104.234 19.2812C104.234 17.7188 105.016 16.9375 106.578 16.9375H117.125C117.906 16.9375 118.297 16.5469 118.297 15.7656C118.297 14.9844 117.906 14.5938 117.125 14.5938H106.578C103.453 14.5938 101.891 16.1562 101.891 19.2812C101.891 22.4062 103.453 23.9688 106.578 23.9688H113.609C115.172 23.9688 115.953 24.75 115.953 26.3125C115.953 27.875 115.172 28.6562 113.609 28.6562H103.062ZM121.812 23.9688V29.8281C121.812 30.6094 121.422 31 120.641 31C119.859 31 119.469 30.6094 119.469 29.8281V15.7656C119.469 14.9844 119.859 14.5938 120.641 14.5938C121.422 14.5938 121.812 14.9844 121.812 15.7656V21.625H133.531V15.7656C133.531 14.9844 133.922 14.5938 134.703 14.5938C135.484 14.5938 135.875 14.9844 135.875 15.7656V29.8281C135.875 30.6094 135.484 31 134.703 31C133.922 31 133.531 30.6094 133.531 29.8281V23.9688H121.812Z" fill="#62F9D5"/>
<path d="M71.2367 1.62819L79.5 1.50018L87.7633 1.62819L95.9347 2.01076L103.923 2.64348L111.639 3.51903L118.997 4.62719L125.913 5.9548L132.309 7.48574L138.11 9.20057L143.248 11.0763L147.66 13.0846L151.289 15.19L154.088 17.3448L156.028 19.485L157.129 21.5411L157.477 23.5L157.129 25.4589L156.028 27.515L154.088 29.6552L151.289 31.81L147.66 33.9154L143.248 35.9237L138.11 37.7994L132.309 39.5143L125.913 41.0452L118.997 42.3728L111.639 43.481L103.923 44.3565L95.9347 44.9892L87.7633 45.3718L79.5 45.4998L71.2367 45.3718L63.0653 44.9892L55.077 44.3565L47.3607 43.481L40.0032 42.3728L33.0873 41.0452L26.6915 39.5143L20.8903 37.7994L15.7519 35.9237L11.3397 33.9154L7.71065 31.81L4.91236 29.6552L2.9724 27.5151L1.8707 25.4589L1.52339 23.5L1.8707 21.5411L2.9724 19.4849L4.91236 17.3448L7.71065 15.19L11.3397 13.0846L15.7519 11.0763L20.8902 9.20059L26.6916 7.48572L33.0872 5.9548L40.0032 4.62719L47.3608 3.51903L55.077 2.64348L63.0653 2.01076L71.2367 1.62819Z" stroke="#62F9D5" stroke-width="3"/>
</svg>
