<svg width="194" height="55" viewBox="0 0 194 55" fill="none" xmlns="http://www.w3.org/2000/svg">
<path d="M77.97 33.28H70.11L68.85 37H63.48L71.1 15.94H77.04L84.66 37H79.23L77.97 33.28ZM76.65 29.32L74.04 21.61L71.46 29.32H76.65ZM92.1091 22.63C92.6091 21.85 93.2991 21.22 94.1791 20.74C95.0591 20.26 96.0891 20.02 97.2691 20.02C98.6491 20.02 99.8991 20.37 101.019 21.07C102.139 21.77 103.019 22.77 103.659 24.07C104.319 25.37 104.649 26.88 104.649 28.6C104.649 30.32 104.319 31.84 103.659 33.16C103.019 34.46 102.139 35.47 101.019 36.19C99.8991 36.89 98.6491 37.24 97.2691 37.24C96.1091 37.24 95.0791 37 94.1791 36.52C93.2991 36.04 92.6091 35.42 92.1091 34.66V44.98H86.9791V20.26H92.1091V22.63ZM99.4291 28.6C99.4291 27.32 99.0691 26.32 98.3491 25.6C97.6491 24.86 96.7791 24.49 95.7391 24.49C94.7191 24.49 93.8491 24.86 93.1291 25.6C92.4291 26.34 92.0791 27.35 92.0791 28.63C92.0791 29.91 92.4291 30.92 93.1291 31.66C93.8491 32.4 94.7191 32.77 95.7391 32.77C96.7591 32.77 97.6291 32.4 98.3491 31.66C99.0691 30.9 99.4291 29.88 99.4291 28.6ZM106.77 28.72C106.77 27.04 107.11 25.57 107.79 24.31C108.47 23.03 109.4 22.04 110.58 21.34C111.78 20.64 113.11 20.29 114.57 20.29C116.01 20.29 117.26 20.6 118.32 21.22C119.38 21.84 120.17 22.62 120.69 23.56V20.56H123.45V37H120.69V33.94C120.15 34.9 119.34 35.7 118.26 36.34C117.2 36.96 115.96 37.27 114.54 37.27C113.08 37.27 111.76 36.91 110.58 36.19C109.4 35.47 108.47 34.46 107.79 33.16C107.11 31.86 106.77 30.38 106.77 28.72ZM120.69 28.75C120.69 27.51 120.44 26.43 119.94 25.51C119.44 24.59 118.76 23.89 117.9 23.41C117.06 22.91 116.13 22.66 115.11 22.66C114.09 22.66 113.16 22.9 112.32 23.38C111.48 23.86 110.81 24.56 110.31 25.48C109.81 26.4 109.56 27.48 109.56 28.72C109.56 29.98 109.81 31.08 110.31 32.02C110.81 32.94 111.48 33.65 112.32 34.15C113.16 34.63 114.09 34.87 115.11 34.87C116.13 34.87 117.06 34.63 117.9 34.15C118.76 33.65 119.44 32.94 119.94 32.02C120.44 31.08 120.69 29.99 120.69 28.75ZM130.794 23.23C131.274 22.29 131.954 21.56 132.834 21.04C133.734 20.52 134.824 20.26 136.104 20.26V23.08H135.384C132.324 23.08 130.794 24.74 130.794 28.06V37H128.064V20.56H130.794V23.23ZM154.255 28.15C154.255 28.67 154.225 29.22 154.165 29.8H141.025C141.125 31.42 141.675 32.69 142.675 33.61C143.695 34.51 144.925 34.96 146.365 34.96C147.545 34.96 148.525 34.69 149.305 34.15C150.105 33.59 150.665 32.85 150.985 31.93H153.925C153.485 33.51 152.605 34.8 151.285 35.8C149.965 36.78 148.325 37.27 146.365 37.27C144.805 37.27 143.405 36.92 142.165 36.22C140.945 35.52 139.985 34.53 139.285 33.25C138.585 31.95 138.235 30.45 138.235 28.75C138.235 27.05 138.575 25.56 139.255 24.28C139.935 23 140.885 22.02 142.105 21.34C143.345 20.64 144.765 20.29 146.365 20.29C147.925 20.29 149.305 20.63 150.505 21.31C151.705 21.99 152.625 22.93 153.265 24.13C153.925 25.31 154.255 26.65 154.255 28.15ZM151.435 27.58C151.435 26.54 151.205 25.65 150.745 24.91C150.285 24.15 149.655 23.58 148.855 23.2C148.075 22.8 147.205 22.6 146.245 22.6C144.865 22.6 143.685 23.04 142.705 23.92C141.745 24.8 141.195 26.02 141.055 27.58H151.435ZM163.679 37.27C162.419 37.27 161.289 37.06 160.289 36.64C159.289 36.2 158.499 35.6 157.919 34.84C157.339 34.06 157.019 33.17 156.959 32.17H159.779C159.859 32.99 160.239 33.66 160.919 34.18C161.619 34.7 162.529 34.96 163.649 34.96C164.689 34.96 165.509 34.73 166.109 34.27C166.709 33.81 167.009 33.23 167.009 32.53C167.009 31.81 166.689 31.28 166.049 30.94C165.409 30.58 164.419 30.23 163.079 29.89C161.859 29.57 160.859 29.25 160.079 28.93C159.319 28.59 158.659 28.1 158.099 27.46C157.559 26.8 157.289 25.94 157.289 24.88C157.289 24.04 157.539 23.27 158.039 22.57C158.539 21.87 159.249 21.32 160.169 20.92C161.089 20.5 162.139 20.29 163.319 20.29C165.139 20.29 166.609 20.75 167.729 21.67C168.849 22.59 169.449 23.85 169.529 25.45H166.799C166.739 24.59 166.389 23.9 165.749 23.38C165.129 22.86 164.289 22.6 163.229 22.6C162.249 22.6 161.469 22.81 160.889 23.23C160.309 23.65 160.019 24.2 160.019 24.88C160.019 25.42 160.189 25.87 160.529 26.23C160.889 26.57 161.329 26.85 161.849 27.07C162.389 27.27 163.129 27.5 164.069 27.76C165.249 28.08 166.209 28.4 166.949 28.72C167.689 29.02 168.319 29.48 168.839 30.1C169.379 30.72 169.659 31.53 169.679 32.53C169.679 33.43 169.429 34.24 168.929 34.96C168.429 35.68 167.719 36.25 166.799 36.67C165.899 37.07 164.859 37.27 163.679 37.27ZM181.693 20.26C182.933 20.26 184.053 20.53 185.053 21.07C186.053 21.59 186.833 22.38 187.393 23.44C187.973 24.5 188.263 25.79 188.263 27.31V37H185.563V27.7C185.563 26.06 185.153 24.81 184.333 23.95C183.513 23.07 182.393 22.63 180.973 22.63C179.533 22.63 178.383 23.08 177.523 23.98C176.683 24.88 176.263 26.19 176.263 27.91V37H173.533V14.8H176.263V22.9C176.803 22.06 177.543 21.41 178.483 20.95C179.443 20.49 180.513 20.26 181.693 20.26Z" fill="white"/>
<circle cx="27.5" cy="27.5" r="27.5" fill="#4FCAB2"/>
<path d="M12.0625 35.5664C11.5156 36.1211 10.9648 36.1211 10.4102 35.5664C9.85547 35.0117 9.85547 34.4609 10.4102 33.9141L24.1562 20.1914C24.4453 19.832 24.8164 19.6328 25.2695 19.5938C26.0195 19.6016 26.3984 19.9805 26.4062 20.7305V20.9297V34.8281C26.4062 35.6094 26.0156 36 25.2344 36C24.4531 36 24.0625 35.6094 24.0625 34.8281V23.5898L12.0625 35.5664ZM29.9219 28.9688V34.8281C29.9219 35.6094 29.5312 36 28.75 36C27.9688 36 27.5781 35.6094 27.5781 34.8281V20.7656C27.5781 19.9844 27.9688 19.5938 28.75 19.5938H39.2969C42.4219 19.5938 43.9844 21.1562 43.9844 24.2812C43.9844 27.3984 42.4219 28.9609 39.2969 28.9688H29.9219ZM39.2969 26.625C40.8594 26.625 41.6406 25.8438 41.6406 24.2812C41.6406 22.7188 40.8594 21.9375 39.2969 21.9375H29.9219V26.625H39.2969Z" fill="white"/>
</svg>
