<svg width="54" height="51" viewBox="0 0 54 51" fill="none" xmlns="http://www.w3.org/2000/svg">
<path d="M4.61731 13.3437L27 1.139L49.3827 13.3437V37.6563L27 49.861L4.61731 37.6563V13.3437Z" stroke="#62F9D5" stroke-width="2"/>
<path d="M11.0625 32.5664C10.5156 33.1211 9.96484 33.1211 9.41016 32.5664C8.85547 32.0117 8.85547 31.4609 9.41016 30.9141L23.1562 17.1914C23.4453 16.832 23.8164 16.6328 24.2695 16.5938C25.0195 16.6016 25.3984 16.9805 25.4062 17.7305V17.9297V31.8281C25.4062 32.6094 25.0156 33 24.2344 33C23.4531 33 23.0625 32.6094 23.0625 31.8281V20.5898L11.0625 32.5664ZM28.9219 25.9688V31.8281C28.9219 32.6094 28.5312 33 27.75 33C26.9688 33 26.5781 32.6094 26.5781 31.8281V17.7656C26.5781 16.9844 26.9688 16.5938 27.75 16.5938H38.2969C41.4219 16.5938 42.9844 18.1562 42.9844 21.2812C42.9844 24.3984 41.4219 25.9609 38.2969 25.9688H28.9219ZM38.2969 23.625C39.8594 23.625 40.6406 22.8438 40.6406 21.2812C40.6406 19.7188 39.8594 18.9375 38.2969 18.9375H28.9219V23.625H38.2969Z" fill="#62F9D5"/>
</svg>
