<svg width="946" height="627" viewBox="0 0 946 627" fill="none" xmlns="http://www.w3.org/2000/svg">
<g clip-path="url(#clip0_335_117)">
<path d="M819.755 154.539C819.755 157.729 819.652 160.893 819.445 164.029C818.286 182.12 813.716 199.828 805.975 216.219C805.915 216.359 805.845 216.489 805.785 216.619C805.425 217.379 805.055 218.139 804.675 218.889C802.373 223.525 799.819 228.032 797.025 232.389C784.262 252.392 766.769 268.943 746.091 280.579C725.413 292.216 702.187 298.58 678.465 299.109L679.895 381.349L698.545 371.529L701.875 377.859L680.035 389.359L682.705 542.099L682.735 544.139L668.315 545.349L668.345 545.299L672.885 299.119C653.791 298.845 634.943 294.781 617.433 287.163C599.923 279.544 584.101 268.523 570.885 254.739C569.975 253.799 569.075 252.829 568.195 251.869C568.155 251.829 568.125 251.789 568.095 251.759C557.084 239.752 548.179 225.971 541.755 210.999C541.895 211.159 542.045 211.309 542.185 211.469C527.667 177.519 526.682 139.302 539.433 104.65C552.184 69.9968 577.704 41.5325 610.765 25.0894C611.265 24.8394 611.775 24.5993 612.275 24.3493C644.978 8.59717 682.406 5.70686 717.14 16.2513C751.874 26.7957 781.378 50.0052 799.805 81.2794C800.685 82.7594 801.535 84.2694 802.355 85.7894C813.802 106.895 819.783 130.53 819.755 154.539Z" fill="#E5E5E5"/>
<path d="M713.285 545.685C737.07 545.685 756.352 526.404 756.352 502.618C756.352 478.833 737.07 459.551 713.285 459.551C689.499 459.551 670.218 478.833 670.218 502.618C670.218 526.404 689.499 545.685 713.285 545.685Z" fill="#2F2E41"/>
<path d="M764.186 532.223H725.603V545.306H764.186V532.223Z" fill="#2F2E41"/>
<path d="M764.459 545.306C766.717 545.306 768.547 540.425 768.547 534.403C768.547 528.381 766.717 523.5 764.459 523.5C762.201 523.5 760.37 528.381 760.37 534.403C760.37 540.425 762.201 545.306 764.459 545.306Z" fill="#2F2E41"/>
<path d="M755.186 531.223H716.603V544.306H755.186V531.223Z" fill="#2F2E41"/>
<path d="M755.459 544.306C757.717 544.306 759.547 539.425 759.547 533.403C759.547 527.381 757.717 522.5 755.459 522.5C753.201 522.5 751.37 527.381 751.37 533.403C751.37 539.425 753.201 544.306 755.459 544.306Z" fill="#2F2E41"/>
<path d="M671.508 462.567C668.031 446.993 679.147 431.256 696.337 427.418C713.527 423.58 730.281 433.093 733.758 448.667C737.236 464.241 725.843 469.985 708.653 473.823C691.464 477.661 674.986 478.141 671.508 462.567Z" fill="#62F9D5"/>
<path d="M729.837 500.166C727.585 500.212 725.375 499.549 723.52 498.271C721.664 496.993 720.257 495.164 719.498 493.043C719.456 492.918 719.439 492.787 719.448 492.656C719.457 492.525 719.492 492.397 719.55 492.279C719.609 492.162 719.69 492.057 719.789 491.971C719.888 491.884 720.003 491.818 720.127 491.777C720.252 491.735 720.383 491.718 720.514 491.727C720.645 491.736 720.773 491.771 720.891 491.829C721.008 491.888 721.113 491.969 721.2 492.068C721.286 492.167 721.352 492.282 721.394 492.406C722.908 496.914 728.092 499.271 732.948 497.66C735.359 496.874 737.362 495.168 738.521 492.912C739.018 491.941 739.316 490.88 739.4 489.792C739.483 488.704 739.349 487.61 739.006 486.574C738.964 486.45 738.947 486.318 738.956 486.187C738.965 486.056 739 485.928 739.059 485.811C739.117 485.693 739.198 485.588 739.297 485.502C739.396 485.416 739.511 485.35 739.636 485.308C739.76 485.266 739.892 485.249 740.023 485.258C740.154 485.267 740.282 485.302 740.399 485.36C740.517 485.419 740.622 485.5 740.708 485.599C740.794 485.698 740.86 485.813 740.902 485.937C741.33 487.223 741.498 488.58 741.396 489.931C741.294 491.282 740.925 492.599 740.31 493.806C738.913 496.536 736.493 498.604 733.578 499.558C732.371 499.96 731.109 500.165 729.837 500.166Z" fill="white"/>
<path d="M749.021 506.019C750.177 508.28 750.388 510.907 749.607 513.322C748.826 515.738 747.118 517.745 744.858 518.901C742.597 520.057 739.97 520.267 737.555 519.486C735.139 518.706 733.132 516.997 731.976 514.737L731.968 514.72C729.565 510.011 732.885 507.088 737.594 504.685C742.304 502.283 746.619 501.31 749.021 506.019Z" fill="white"/>
<path d="M902.733 546.074H521.733C521.467 546.074 521.213 545.968 521.026 545.781C520.838 545.593 520.733 545.339 520.733 545.074C520.733 544.809 520.838 544.554 521.026 544.367C521.213 544.179 521.467 544.074 521.733 544.074H902.733C902.998 544.074 903.252 544.179 903.44 544.367C903.627 544.554 903.733 544.809 903.733 545.074C903.733 545.339 903.627 545.593 903.44 545.781C903.252 545.968 902.998 546.074 902.733 546.074Z" fill="#3F3D56"/>
<path d="M703.65 559.633C707.661 558.598 708.241 547.401 704.946 534.624C701.651 521.847 695.728 512.327 691.717 513.362C687.705 514.396 687.125 525.593 690.42 538.37C693.715 551.148 699.638 560.667 703.65 559.633Z" fill="#2F2E41"/>
<path d="M775.966 451.278H759.58C759.424 451.278 759.272 451.231 759.143 451.143C759.014 451.054 758.915 450.929 758.859 450.784C758.803 450.638 758.792 450.479 758.828 450.327C758.864 450.175 758.946 450.038 759.061 449.933L773.962 436.438H760.195C759.99 436.438 759.793 436.357 759.648 436.212C759.503 436.067 759.422 435.87 759.422 435.665C759.422 435.46 759.503 435.264 759.648 435.119C759.793 434.974 759.99 434.893 760.195 434.893H775.966C776.122 434.893 776.274 434.94 776.403 435.028C776.532 435.116 776.631 435.242 776.687 435.387C776.743 435.533 776.754 435.692 776.718 435.844C776.682 435.996 776.6 436.133 776.485 436.238L761.584 449.733H775.966C776.171 449.733 776.367 449.814 776.512 449.959C776.657 450.104 776.739 450.301 776.739 450.505C776.739 450.71 776.657 450.907 776.512 451.052C776.367 451.197 776.171 451.278 775.966 451.278Z" fill="#CBCBCB"/>
<path d="M796.83 427.323H780.444C780.288 427.323 780.136 427.276 780.007 427.188C779.878 427.099 779.779 426.974 779.723 426.828C779.667 426.683 779.656 426.524 779.692 426.372C779.728 426.22 779.81 426.082 779.925 425.978L794.826 412.483H781.059C780.854 412.483 780.657 412.402 780.512 412.257C780.367 412.112 780.286 411.915 780.286 411.71C780.286 411.505 780.367 411.309 780.512 411.164C780.657 411.019 780.854 410.938 781.059 410.938H796.83C796.986 410.937 797.138 410.985 797.267 411.073C797.396 411.161 797.495 411.287 797.551 411.432C797.607 411.578 797.618 411.737 797.582 411.889C797.546 412.041 797.464 412.178 797.349 412.283L782.448 425.778H796.83C797.035 425.778 797.231 425.859 797.376 426.004C797.521 426.149 797.603 426.345 797.603 426.55C797.603 426.755 797.521 426.952 797.376 427.097C797.231 427.242 797.035 427.323 796.83 427.323Z" fill="#CBCBCB"/>
<path d="M787.557 401.05H771.171C771.015 401.05 770.863 401.003 770.734 400.915C770.605 400.826 770.506 400.701 770.45 400.555C770.394 400.41 770.383 400.251 770.419 400.099C770.456 399.947 770.537 399.809 770.652 399.705L785.553 386.21H771.786C771.581 386.21 771.384 386.129 771.239 385.984C771.094 385.839 771.013 385.642 771.013 385.437C771.013 385.232 771.094 385.036 771.239 384.891C771.384 384.746 771.581 384.665 771.786 384.665H787.557C787.713 384.665 787.865 384.712 787.994 384.8C788.123 384.888 788.222 385.014 788.278 385.159C788.334 385.305 788.345 385.464 788.309 385.616C788.273 385.768 788.191 385.905 788.076 386.01L773.176 399.505H787.557C787.762 399.505 787.958 399.586 788.103 399.731C788.248 399.876 788.33 400.073 788.33 400.277C788.33 400.482 788.248 400.679 788.103 400.824C787.958 400.969 787.762 401.05 787.557 401.05Z" fill="#CBCBCB"/>
<path d="M901.119 177.377L913.914 167.143C903.974 166.047 899.89 171.468 898.219 175.758C890.453 172.534 882 176.76 882 176.76L907.6 186.053C906.309 182.604 904.06 179.594 901.119 177.377Z" fill="#3F3D56"/>
<path d="M534.119 10.3768L546.914 0.143314C536.974 -0.953306 532.89 4.46759 531.219 8.7583C523.453 5.53384 515 9.75968 515 9.75968L540.6 19.0534C539.309 15.6039 537.06 12.594 534.119 10.3768Z" fill="#3F3D56"/>
<path d="M933.119 45.3768L945.914 35.1433C935.974 34.0467 931.89 39.4676 930.219 43.7583C922.453 40.5338 914 44.7597 914 44.7597L939.6 54.0534C938.309 50.6039 936.06 47.594 933.119 45.3768Z" fill="#3F3D56"/>
<circle cx="675.5" cy="154.5" r="144.5" fill="#0A192F" fill-opacity="0.98" stroke="#62F9D5" stroke-width="7"/>
</g>
<path d="M612.992 182.32C610.873 184.469 608.739 184.469 606.589 182.32C604.44 180.17 604.44 178.036 606.589 175.917L659.855 122.742C660.976 121.349 662.414 120.577 664.169 120.426C667.076 120.456 668.544 121.924 668.574 124.831V125.603V179.459C668.574 182.486 667.061 184 664.033 184C661.006 184 659.492 182.486 659.492 179.459V135.911L612.992 182.32ZM682.197 156.754V179.459C682.197 182.486 680.684 184 677.656 184C674.629 184 673.115 182.486 673.115 179.459V124.967C673.115 121.939 674.629 120.426 677.656 120.426H718.525C730.635 120.426 736.689 126.48 736.689 138.59C736.689 150.669 730.635 156.724 718.525 156.754H682.197ZM718.525 147.672C724.58 147.672 727.607 144.645 727.607 138.59C727.607 132.535 724.58 129.508 718.525 129.508H682.197V147.672H718.525Z" fill="#62F9D5"/>
<path d="M229.104 420.164C233.571 420.027 237.41 418.353 240.623 415.14C243.95 411.813 245.796 407.791 246.16 403.074V382.566C246.16 380.288 247.299 379.148 249.578 379.148C251.857 379.148 252.996 380.288 252.996 382.566V403.074H253.03C252.643 409.682 250.114 415.322 245.442 419.993C241.045 424.391 235.781 426.715 229.651 426.966V427H228.523V426.966C222.394 426.715 217.13 424.391 212.732 419.993C208.061 415.322 205.532 409.682 205.145 403.074H205.179V382.566C205.179 380.288 206.318 379.148 208.597 379.148C210.875 379.148 212.015 380.288 212.015 382.566V403.074C212.379 407.791 214.236 411.813 217.586 415.14C220.776 418.353 224.616 420.027 229.104 420.164ZM263.25 391.18V423.582C263.25 425.861 262.111 427 259.832 427C257.553 427 256.414 425.861 256.414 423.582V382.566C256.414 380.288 257.553 379.148 259.832 379.148C260.538 379.148 261.131 379.251 261.609 379.456L262.771 380.447L297.43 415.003V382.566C297.43 380.288 298.569 379.148 300.848 379.148C303.126 379.148 304.266 380.288 304.266 382.566V423.582C304.266 425.861 303.126 427 300.848 427C300.21 427 299.663 426.909 299.207 426.727L297.977 425.77L263.25 391.18ZM331.609 379.148C338.217 379.148 343.857 381.484 348.528 386.155C353.2 390.826 355.535 396.466 355.535 403.074C355.535 409.682 353.2 415.322 348.528 419.993C343.857 424.664 338.217 427 331.609 427H314.52C309.962 427 307.684 424.721 307.684 420.164V385.984C307.684 381.427 309.962 379.148 314.52 379.148H331.609ZM331.609 420.164C336.326 420.164 340.348 418.501 343.675 415.174C347.024 411.824 348.699 407.791 348.699 403.074C348.699 398.357 347.024 394.336 343.675 391.009C340.348 387.659 336.326 385.984 331.609 385.984H314.52V420.164H331.609ZM358.953 382.566C358.953 380.288 360.092 379.148 362.371 379.148H403.387C405.665 379.148 406.805 380.288 406.805 382.566C406.805 384.845 405.665 385.984 403.387 385.984H362.371C360.092 385.984 358.953 384.845 358.953 382.566ZM358.953 423.582C358.953 421.303 360.092 420.164 362.371 420.164H403.387C405.665 420.164 406.805 421.303 406.805 423.582C406.805 425.861 405.665 427 403.387 427H362.371C360.092 427 358.953 425.861 358.953 423.582ZM358.953 403.074C358.953 400.796 360.092 399.656 362.371 399.656H403.387C405.665 399.656 406.805 400.796 406.805 403.074C406.805 405.353 405.665 406.492 403.387 406.492H362.371C360.092 406.492 358.953 405.353 358.953 403.074ZM432.713 406.492H417.059V423.582C417.059 425.861 415.919 427 413.641 427C411.362 427 410.223 425.861 410.223 423.582V382.566C410.223 380.288 411.362 379.148 413.641 379.148H444.402C453.517 379.148 458.074 383.706 458.074 392.82C458.074 401.912 453.517 406.469 444.402 406.492H442.352L456.878 420.984C458.496 422.579 458.496 424.186 456.878 425.804C455.26 427.422 453.654 427.422 452.059 425.804L432.713 406.492ZM444.402 399.656C448.96 399.656 451.238 397.378 451.238 392.82C451.238 388.263 448.96 385.984 444.402 385.984H417.059V399.656H444.402ZM101.956 480.512L102.093 481.332C102.48 483.588 101.557 484.91 99.3242 485.297C97.4785 485.616 96.2367 485.069 95.5986 483.656C94.9606 480.375 93.3997 477.481 90.916 474.975C87.5664 471.648 83.5332 469.984 78.8164 469.984C74.0996 469.984 70.0664 471.659 66.7168 475.009C63.39 478.336 61.7266 482.357 61.7266 487.074C61.7266 491.791 63.39 495.824 66.7168 499.174C70.0664 502.501 74.0996 504.164 78.8164 504.164C83.5332 504.164 87.5664 502.489 90.916 499.14C93.3997 496.656 95.0176 493.796 95.7695 490.561C96.4076 489.307 97.5924 488.829 99.3242 489.125C101.557 489.535 102.48 490.857 102.093 493.09L101.956 493.944C101.022 497.659 98.9482 501.008 95.7354 503.993C91.0641 508.664 85.4245 511 78.8164 511C72.2083 511 66.5687 508.664 61.8975 503.993C57.2262 499.322 54.8906 493.682 54.8906 487.074C54.8906 480.466 57.2262 474.826 61.8975 470.155C66.5687 465.484 72.2083 463.148 78.8164 463.148C85.4245 463.148 91.0641 465.484 95.7354 470.155C99.3128 473.733 101.386 477.185 101.956 480.512ZM130.086 463.148C136.694 463.148 142.334 465.484 147.005 470.155C151.676 474.826 154.012 480.466 154.012 487.074C154.012 493.682 151.676 499.322 147.005 503.993C142.334 508.664 136.694 511 130.086 511C123.478 511 117.838 508.664 113.167 503.993C108.496 499.322 106.16 493.682 106.16 487.074C106.16 480.466 108.496 474.826 113.167 470.155C117.838 465.484 123.478 463.148 130.086 463.148ZM130.086 469.984C125.369 469.984 121.336 471.659 117.986 475.009C114.66 478.336 112.996 482.357 112.996 487.074C112.996 491.791 114.66 495.824 117.986 499.174C121.336 502.501 125.369 504.164 130.086 504.164C134.803 504.164 138.825 502.501 142.151 499.174C145.501 495.824 147.176 491.791 147.176 487.074C147.176 482.357 145.501 478.336 142.151 475.009C138.825 471.659 134.803 469.984 130.086 469.984ZM164.266 475.18V507.582C164.266 509.861 163.126 511 160.848 511C158.569 511 157.43 509.861 157.43 507.582V466.566C157.43 464.288 158.569 463.148 160.848 463.148C161.554 463.148 162.146 463.251 162.625 463.456L163.787 464.447L198.445 499.003V466.566C198.445 464.288 199.585 463.148 201.863 463.148C204.142 463.148 205.281 464.288 205.281 466.566V507.582C205.281 509.861 204.142 511 201.863 511C201.225 511 200.678 510.909 200.223 510.727L198.992 509.77L164.266 475.18ZM212.117 504.164C209.839 504.164 208.699 505.303 208.699 507.582C208.699 509.861 209.839 511 212.117 511H242.879C251.993 511 256.551 506.443 256.551 497.328C256.551 488.214 251.993 483.656 242.879 483.656H222.371C217.814 483.656 215.535 481.378 215.535 476.82C215.535 472.263 217.814 469.984 222.371 469.984H253.133C255.411 469.984 256.551 468.845 256.551 466.566C256.551 464.288 255.411 463.148 253.133 463.148H222.371C213.257 463.148 208.699 467.706 208.699 476.82C208.699 485.935 213.257 490.492 222.371 490.492H242.879C247.436 490.492 249.715 492.771 249.715 497.328C249.715 501.885 247.436 504.164 242.879 504.164H212.117ZM287.312 469.984V507.582C287.312 509.861 286.173 511 283.895 511C281.616 511 280.477 509.861 280.477 507.582V469.984H263.387C261.108 469.984 259.969 468.845 259.969 466.566C259.969 464.288 261.108 463.148 263.387 463.148H304.402C306.681 463.148 307.82 464.288 307.82 466.566C307.82 468.845 306.681 469.984 304.402 469.984H287.312ZM333.729 490.492H318.074V507.582C318.074 509.861 316.935 511 314.656 511C312.378 511 311.238 509.861 311.238 507.582V466.566C311.238 464.288 312.378 463.148 314.656 463.148H345.418C354.533 463.148 359.09 467.706 359.09 476.82C359.09 485.912 354.533 490.469 345.418 490.492H343.367L357.894 504.984C359.511 506.579 359.511 508.186 357.894 509.804C356.276 511.422 354.669 511.422 353.074 509.804L333.729 490.492ZM345.418 483.656C349.975 483.656 352.254 481.378 352.254 476.82C352.254 472.263 349.975 469.984 345.418 469.984H318.074V483.656H345.418ZM386.468 504.164C390.934 504.027 394.773 502.353 397.986 499.14C401.313 495.813 403.159 491.791 403.523 487.074V466.566C403.523 464.288 404.663 463.148 406.941 463.148C409.22 463.148 410.359 464.288 410.359 466.566V487.074H410.394C410.006 493.682 407.477 499.322 402.806 503.993C398.408 508.391 393.144 510.715 387.015 510.966V511H385.887V510.966C379.757 510.715 374.493 508.391 370.096 503.993C365.424 499.322 362.895 493.682 362.508 487.074H362.542V466.566C362.542 464.288 363.681 463.148 365.96 463.148C368.239 463.148 369.378 464.288 369.378 466.566V487.074C369.743 491.791 371.6 495.813 374.949 499.14C378.139 502.353 381.979 504.027 386.468 504.164ZM460.843 480.512L460.979 481.332C461.367 483.588 460.444 484.91 458.211 485.297C456.365 485.616 455.123 485.069 454.485 483.656C453.847 480.375 452.286 477.481 449.803 474.975C446.453 471.648 442.42 469.984 437.703 469.984C432.986 469.984 428.953 471.659 425.604 475.009C422.277 478.336 420.613 482.357 420.613 487.074C420.613 491.791 422.277 495.824 425.604 499.174C428.953 502.501 432.986 504.164 437.703 504.164C442.42 504.164 446.453 502.489 449.803 499.14C452.286 496.656 453.904 493.796 454.656 490.561C455.294 489.307 456.479 488.829 458.211 489.125C460.444 489.535 461.367 490.857 460.979 493.09L460.843 493.944C459.909 497.659 457.835 501.008 454.622 503.993C449.951 508.664 444.311 511 437.703 511C431.095 511 425.455 508.664 420.784 503.993C416.113 499.322 413.777 493.682 413.777 487.074C413.777 480.466 416.113 474.826 420.784 470.155C425.455 465.484 431.095 463.148 437.703 463.148C444.311 463.148 449.951 465.484 454.622 470.155C458.2 473.733 460.273 477.185 460.843 480.512ZM492.391 469.984V507.582C492.391 509.861 491.251 511 488.973 511C486.694 511 485.555 509.861 485.555 507.582V469.984H468.465C466.186 469.984 465.047 468.845 465.047 466.566C465.047 464.288 466.186 463.148 468.465 463.148H509.48C511.759 463.148 512.898 464.288 512.898 466.566C512.898 468.845 511.759 469.984 509.48 469.984H492.391ZM516.316 466.566C516.316 464.288 517.456 463.148 519.734 463.148C522.013 463.148 523.152 464.288 523.152 466.566V507.582C523.152 509.861 522.013 511 519.734 511C517.456 511 516.316 509.861 516.316 507.582V466.566ZM550.496 463.148C557.104 463.148 562.744 465.484 567.415 470.155C572.086 474.826 574.422 480.466 574.422 487.074C574.422 493.682 572.086 499.322 567.415 503.993C562.744 508.664 557.104 511 550.496 511C543.888 511 538.248 508.664 533.577 503.993C528.906 499.322 526.57 493.682 526.57 487.074C526.57 480.466 528.906 474.826 533.577 470.155C538.248 465.484 543.888 463.148 550.496 463.148ZM550.496 469.984C545.779 469.984 541.746 471.659 538.396 475.009C535.07 478.336 533.406 482.357 533.406 487.074C533.406 491.791 535.07 495.824 538.396 499.174C541.746 502.501 545.779 504.164 550.496 504.164C555.213 504.164 559.235 502.501 562.562 499.174C565.911 495.824 567.586 491.791 567.586 487.074C567.586 482.357 565.911 478.336 562.562 475.009C559.235 471.659 555.213 469.984 550.496 469.984ZM584.676 475.18V507.582C584.676 509.861 583.536 511 581.258 511C578.979 511 577.84 509.861 577.84 507.582V466.566C577.84 464.288 578.979 463.148 581.258 463.148C581.964 463.148 582.557 463.251 583.035 463.456L584.197 464.447L618.855 499.003V466.566C618.855 464.288 619.995 463.148 622.273 463.148C624.552 463.148 625.691 464.288 625.691 466.566V507.582C625.691 509.861 624.552 511 622.273 511C621.635 511 621.089 510.909 620.633 510.727L619.402 509.77L584.676 475.18Z" fill="#62F9D5" fill-opacity="0.72"/>
<defs>
<clipPath id="clip0_335_117">
<rect width="430.914" height="559.71" fill="white" transform="translate(515)"/>
</clipPath>
</defs>
</svg>
